# xmcd CD database file
# Generated: Sat May 10 11:59:13 2003 by KSCD
# 
# Track frame offsets:
#       150
#       14392
#       37024
#       57794
#       83930
#       96126
#       117454
#       134607
#       154911
#       170352
#       190099
#       206363
#       224968
#       246137
#       265045
#       283121
#       302147
#       316800
#
# Disc length: 4433 seconds
#
# Revision: 1
# Processed by: cddbd v1.4PL0 Copyright (c) Steve Scherf et al.
# Submitted via: Kscd 1.3.3
#
DISCID=09114f12
DTITLE=Joe Cocker - All stars present: BEST OF
DYEAR=2000
DGENRE=Blues
TTITLE0=Dignity
TTITLE1=Unchain my heart
TTITLE2=When the night comes
TTITLE3=Whis a little help from my friends
TTITLE4=You are so beautiful
TTITLE5=The simple things
TTITLE6=Summer in the city
TTITLE7=N'oubliez jamais
TTITLE8=Night calls
TTITLE9=My father's son
TTITLE10=No ordinary world
TTITLE11=Could you be loved
TTITLE12=Tonight
TTITLE13=You can leave your hat on
TTITLE14=Don't let me be misunderstood
TTITLE15=Love to lean on
TTITLE16=Delta lady
TTITLE17=Bye bye blackbird
EXTD=
EXTT0=
EXTT1=
EXTT2=
EXTT3=LIVE
EXTT4=
EXTT5=
EXTT6=
EXTT7=
EXTT8=
EXTT9=
EXTT10=
EXTT11=
EXTT12=
EXTT13=
EXTT14=
EXTT15=
EXTT16=
EXTT17=
PLAYORDER=
